<svg viewBox="0 0 16 16" xmlns="http://www.w3.org/2000/svg"><path d="m1.13714864 7.99973883c0 2.71659427 1.57866214 5.06402007 3.8678463 6.17661847l-3.27367699-8.96960597c-.39243979.87879564-.59491184 1.83054778-.59416931 2.7929875zm11.49580486-.34631583c0 .58750939-.2257843 1.26930234-.5226078 2.21853678l-.6844047 2.28748652-2.48010182-7.37736279c.41291502-.02167739.78547877-.06542392.78547877-.06542392.36969085-.04374653.32620545-.58711762-.04400771-.56530965 0 0-1.11129248.0871013-1.82899677.0871013-.67434951 0-1.80771114-.0871013-1.80771114-.0871013-.36982142-.02180797-.41317619.54363227-.04335477.56530965 0 0 .35010284.04374653.71966309.06542392l1.06937416 2.92945056-1.50200777 4.50432563-2.49916751-7.4336456c.41369854-.02167739.78560935-.06542392.78560935-.06542392.36942966-.04374653.32581372-.58711763-.04413829-.56530965 0 0-1.1111619.0871013-1.82899677.0871013-.12875845 0-.28063073-.00326467-.44164409-.00809637 1.22712285-1.86321048 3.33648918-3.09333682 5.73406027-3.09333682 1.78668669 0 3.4134047.68296824 4.6345206 1.80157357-.0297738-.00169763-.0586334-.00548464-.0890601-.00548464-.6739578 0-1.1522967.58724821-1.1522967 1.21811237 0 .56530965.3259443 1.04404035.6738272 1.60935.2613039.4571839.5659625 1.0445627.5659625 1.89272306zm-4.5125526.94662271 2.1097581 5.77937379c.0133546.0329421.0297029.0645896.0488394.0945448-.71339493.2507264-1.47980804.3890176-2.2789984.3890176-.65628499.0000057-1.30917284-.0941938-1.93868956-.2797166zm5.9014724-3.89291894c.553345 1.00910792.8425471 2.14174882.8407169 3.29261206 0 2.53194477-1.3723352 4.74238517-3.4126212 5.93216027l2.0963076-6.06091872c.39176-.97887761.5218243-1.76174464.5218243-2.4581633 0-.25229343-.016715-.48708824-.0462276-.70569031zm-6.0218733-4.70712677c4.4109562 0 8.0002612 3.58865202 8.0003918 7.99973883 0 4.41173977-3.5894356 8.00026117-8.0003918 8.00026117-4.41121739 0-8-3.588652-8-8.00026117 0-4.41108681 3.58891319-7.99973883 8-7.99973883zm0 15.6331821c4.2085469 0 7.6327903-3.424374 7.6327903-7.63344327 0-4.20867749-3.4241128-7.63279031-7.6327903-7.63279031-4.20893866 0-7.63318207 3.42411282-7.63318207 7.63279031 0 4.20906927 3.424374 7.63344327 7.63318207 7.63344327z" fill="#00749a"/></svg>